<?xml version="1.0" standalone="no"?>
<!DOCTYPE svg PUBLIC "-//W3C//DTD SVG 20010904//EN"
 "http://www.w3.org/TR/2001/REC-SVG-20010904/DTD/svg10.dtd">
<svg version="1.0" xmlns="http://www.w3.org/2000/svg"
 width="578.000000pt" height="306.000000pt" viewBox="0 0 578.000000 306.000000"
 preserveAspectRatio="xMidYMid meet">

<g transform="translate(0.000000,306.000000) scale(0.100000,-0.100000)"
fill="#000000" stroke="none">
<path d="M1501 2830 c-51 -15 -130 -46 -175 -69 -67 -33 -91 -51 -128 -98 -56
-73 -59 -78 -97 -190 -37 -111 -62 -161 -135 -272 -123 -186 -198 -374 -240
-603 -20 -103 -23 -216 -8 -244 15 -28 94 -78 155 -98 26 -9 80 -19 120 -22
39 -3 116 -17 170 -30 196 -47 357 -41 492 19 68 30 74 31 220 32 169 1 230
14 307 65 66 44 107 102 142 203 5 17 11 15 48 -18 57 -49 188 -111 266 -126
88 -17 231 -7 317 22 39 13 105 47 149 77 43 29 79 52 80 50 1 -2 8 -21 15
-43 32 -95 104 -166 210 -206 48 -19 78 -22 211 -23 147 -2 158 -3 220 -30
140 -61 318 -70 486 -25 43 12 119 25 167 30 128 11 212 43 275 102 29 28 32
36 32 91 0 161 -72 433 -156 597 -31 58 -75 135 -99 170 -65 95 -102 169 -136
272 -72 216 -155 291 -408 366 -57 17 -123 31 -146 31 -39 0 -47 -6 -128 -85
-98 -97 -103 -110 -58 -173 l30 -40 -30 -12 c-62 -26 -90 -109 -50 -149 40
-40 150 -53 215 -26 33 14 43 14 102 -1 62 -15 123 -15 171 1 21 7 28 -2 84
-121 l61 -129 -12 -185 c-7 -102 -14 -188 -16 -192 -3 -4 -28 4 -58 18 -82 37
-158 48 -239 34 l-68 -12 -61 42 c-95 67 -147 84 -258 84 -62 -1 -109 -6 -136
-16 l-41 -16 0 76 c-1 139 -49 267 -148 389 -53 64 -51 69 27 136 68 57 128
97 220 147 143 78 -38 31 -271 -71 -108 -46 -138 -56 -154 -48 -43 24 -132 49
-207 59 -102 14 -203 1 -306 -39 l-75 -29 -122 53 c-140 60 -304 115 -344 115
-21 0 -10 -9 49 -39 100 -51 189 -112 250 -171 l50 -48 -53 -69 c-91 -119
-129 -229 -129 -376 0 -81 -2 -89 -17 -82 -154 59 -316 35 -445 -66 l-39 -32
-72 13 c-86 14 -165 3 -242 -35 -27 -13 -50 -23 -52 -21 -1 1 -8 88 -15 194
l-12 191 62 126 c52 107 65 126 80 119 35 -16 105 -16 170 0 61 15 71 16 104
1 44 -18 106 -19 159 -4 106 32 103 119 -7 185 -18 11 -18 13 8 40 51 55 48
73 -32 160 -39 44 -81 84 -93 91 -35 20 -105 14 -206 -17z m1006 -635 c21 -9
46 -23 57 -33 26 -23 56 -91 56 -128 0 -48 -20 -96 -39 -92 -13 3 -15 14 -13
63 3 50 -1 66 -20 95 -43 63 -109 78 -169 37 -49 -32 -75 -89 -61 -134 11 -35
7 -63 -8 -63 -17 0 -40 32 -42 58 -5 100 29 160 112 196 45 20 82 20 127 1z
m670 -22 c22 -17 46 -50 57 -77 19 -44 19 -48 2 -101 -9 -30 -19 -55 -21 -55
-2 0 -10 3 -19 6 -13 5 -14 17 -9 64 4 45 2 64 -12 87 -72 123 -249 55 -230
-88 4 -26 4 -53 1 -58 -12 -20 -36 2 -47 41 -19 71 13 147 80 190 40 26 53 29
103 26 46 -3 65 -11 95 -35z m-616 -318 c-11 -42 6 -83 41 -101 37 -19 82 -11
103 19 23 32 18 55 -14 71 -16 9 -31 22 -35 31 -9 25 23 30 60 10 32 -17 34
-17 67 4 31 19 36 19 47 6 10 -13 10 -19 -5 -35 -10 -11 -26 -22 -36 -25 -39
-13 -6 -78 46 -91 57 -14 118 53 98 107 -11 27 -1 59 18 59 15 0 39 -64 39
-102 0 -18 -9 -47 -20 -65 -34 -57 -135 -69 -194 -22 l-26 20 -22 -20 c-46
-43 -141 -36 -188 14 -31 33 -40 114 -15 151 14 22 19 24 31 13 10 -10 11 -23
5 -44z"/>
<path d="M3477 2577 c-54 -29 -131 -78 -172 -110 l-75 -57 45 -61 c52 -71 92
-150 109 -216 l13 -48 27 53 c81 158 159 387 154 451 l-3 40 -98 -52z"/>
<path d="M1920 2590 c0 -44 57 -212 126 -374 l59 -138 16 53 c24 81 65 161
111 220 l42 52 -34 30 c-73 62 -279 187 -310 187 -5 0 -10 -14 -10 -30z"/>
<path d="M285 874 c-52 -19 -81 -48 -101 -100 -37 -98 2 -168 115 -205 89 -29
118 -45 126 -69 16 -49 -51 -83 -121 -60 -27 9 -36 19 -41 41 -5 28 -7 29 -70
29 l-65 0 4 -62 c4 -51 9 -65 31 -84 58 -50 218 -56 307 -11 56 27 90 88 90
159 0 70 -37 108 -134 137 -78 23 -126 52 -126 77 0 30 38 54 88 54 57 0 72
-12 72 -57 l0 -34 62 3 63 3 9 42 c11 55 -15 111 -64 135 -44 22 -187 23 -245
2z"/>
<path d="M716 873 c-3 -10 -23 -124 -46 -253 -22 -129 -43 -247 -46 -262 l-6
-28 65 0 65 0 11 68 c18 104 17 102 65 102 69 0 147 18 183 42 44 31 68 79 83
169 11 67 10 80 -5 112 -26 55 -68 67 -230 67 -119 0 -134 -2 -139 -17z m234
-118 c8 -10 11 -31 7 -57 -8 -58 -34 -78 -104 -78 l-55 0 6 33 c4 17 9 51 13
75 l6 42 57 0 c39 0 62 -5 70 -15z"/>
<path d="M1167 618 c-26 -150 -48 -276 -47 -280 0 -5 28 -8 63 -8 l63 0 44
253 c24 138 45 264 48 280 l4 27 -64 0 -64 0 -47 -272z"/>
<path d="M1417 618 c-26 -150 -48 -276 -47 -280 0 -5 28 -8 63 -8 l63 0 23
143 c13 78 27 149 32 157 4 9 25 -42 56 -140 l49 -155 67 -3 c37 -2 67 1 67 5
0 4 20 123 45 263 25 140 45 263 45 273 0 16 -8 18 -62 15 l-62 -3 -12 -65
c-6 -36 -17 -98 -24 -137 -6 -40 -16 -73 -20 -73 -5 0 -29 63 -55 140 l-47
140 -67 0 -67 0 -47 -272z"/>
<path d="M2001 838 c-6 -29 -26 -145 -46 -258 -19 -113 -38 -215 -40 -227 -5
-22 -3 -23 59 -23 74 0 64 -19 97 177 12 73 25 130 29 128 4 -2 29 -72 55
-155 l49 -151 65 3 65 3 42 245 c24 135 46 260 49 278 l6 32 -64 0 -65 0 -16
-92 c-9 -51 -20 -112 -24 -136 -4 -24 -11 -43 -17 -43 -5 0 -30 61 -55 136
l-44 135 -68 0 -67 0 -10 -52z"/>
<path d="M2540 818 c-7 -40 -29 -167 -50 -281 l-37 -208 66 3 65 3 48 265 c25
146 47 271 47 278 1 8 -18 12 -63 12 l-64 0 -12 -72z"/>
<path d="M2790 818 c-7 -40 -29 -167 -50 -281 l-37 -208 66 3 66 3 25 147 c14
80 28 149 31 152 6 6 99 -270 99 -293 0 -7 24 -11 68 -11 l68 0 47 273 c26
149 48 275 47 280 0 4 -28 7 -63 7 l-63 0 -24 -140 c-13 -77 -27 -140 -31
-140 -4 0 -28 63 -54 140 l-47 140 -68 0 -68 0 -12 -72z"/>
<path d="M3410 863 c-74 -39 -102 -93 -129 -245 -25 -140 -26 -179 -6 -222 25
-53 67 -71 165 -70 157 1 220 58 246 222 l7 42 -96 0 c-102 0 -107 -3 -107
-56 0 -19 5 -24 25 -24 18 0 25 -5 25 -19 0 -28 -38 -51 -82 -51 -41 0 -68 21
-68 53 0 41 39 225 51 245 21 34 74 51 113 36 23 -9 39 -66 27 -98 l-11 -26
64 0 c63 0 64 1 75 31 17 48 13 110 -8 145 -27 45 -76 64 -164 64 -62 0 -84
-5 -127 -27z"/>
<path d="M4120 874 c-41 -18 -86 -59 -106 -96 -22 -42 -66 -297 -59 -345 8
-54 43 -88 107 -103 143 -35 286 37 305 154 l6 36 -62 0 c-56 0 -62 -2 -71
-24 -13 -34 -48 -56 -91 -56 -66 0 -72 26 -43 189 14 78 22 101 45 123 55 56
135 23 127 -50 -3 -21 -8 -45 -12 -54 -7 -16 -1 -18 53 -18 l62 0 16 38 c37
88 14 168 -58 204 -43 23 -169 24 -219 2z"/>
<path d="M4601 868 c-5 -13 -48 -133 -96 -268 -48 -135 -90 -251 -92 -257 -4
-10 13 -13 64 -13 l69 0 20 63 20 62 70 0 69 0 -4 -62 -3 -63 71 0 71 0 0 280
0 280 -125 0 c-121 0 -126 -1 -134 -22z m134 -205 c-4 -54 -9 -101 -12 -105
-6 -11 -91 -10 -98 1 -4 8 17 89 50 189 3 6 18 12 36 12 l31 0 -7 -97z"/>
<path d="M4996 882 c-3 -5 -8 -31 -12 -60 l-6 -51 94 -3 94 -3 -32 -185 c-18
-102 -36 -200 -39 -217 l-6 -33 65 0 65 0 6 33 c3 17 20 115 38 217 l33 185
96 3 96 3 7 37 c3 20 9 47 12 60 l5 22 -255 0 c-141 0 -258 -4 -261 -8z"/>
</g>
</svg>
